<svg xmlns="http://www.w3.org/2000/svg" width="33.521" height="26" viewBox="0 0 33.521 26"><defs><style>.a{fill:#041519;}</style></defs><g transform="translate(-1.5 -12.487)"><g transform="translate(1.5 12.487)"><path class="a" d="M3.36,26.96a1.47,1.47,0,0,1-.958-.376,1.394,1.394,0,0,1-.034-1.95L13.69,12.9a1.379,1.379,0,0,1,1.984,1.915L4.352,26.55A1.428,1.428,0,0,1,3.36,26.96Z" transform="translate(-1.821 -12.487)"/><path class="a" d="M33.652,49.236H2.868a1.368,1.368,0,0,1,0-2.736H33.652a1.368,1.368,0,1,1,0,2.736Z" transform="translate(-1.5 -34.866)"/><path class="a" d="M14.682,61.055a1.428,1.428,0,0,1-.992-.41L2.368,49.118A1.379,1.379,0,1,1,4.352,47.2L15.673,58.729a1.394,1.394,0,0,1-.034,1.95A1.47,1.47,0,0,1,14.682,61.055Z" transform="translate(-1.821 -35.055)"/></g></g></svg>