<svg xmlns="http://www.w3.org/2000/svg" width="32" height="32" viewBox="0 0 32 32"><defs><style>.a{fill:#f5f8f9;}.b{fill:rgba(0,0,0,0);}</style></defs><path class="a" d="M30.111,8H23v2.062h7.111V31.716H23v2.062h8.889V10.062A1.936,1.936,0,0,0,30.111,8Z" transform="translate(-2.556 -4.444)"/><path class="a" d="M18.116,3H5.884A1.884,1.884,0,0,0,4,4.884V29.667H20V4.884A1.884,1.884,0,0,0,18.116,3Zm.107,24.889H15.556V25.222H8.444v2.667H5.778v-23a.107.107,0,0,1,.107-.107H18.116a.107.107,0,0,1,.107.107Z" transform="translate(-0.444 -0.333)"/><rect class="a" width="1.778" height="1.778" transform="translate(7.111 7.111)"/><rect class="a" width="1.778" height="1.778" transform="translate(10.667 7.111)"/><rect class="a" width="1.778" height="1.778" transform="translate(14.222 7.111)"/><rect class="a" width="1.778" height="1.778" transform="translate(7.111 11.556)"/><rect class="a" width="1.778" height="1.778" transform="translate(10.667 11.556)"/><rect class="a" width="1.778" height="1.778" transform="translate(14.222 11.556)"/><rect class="a" width="1.778" height="1.778" transform="translate(7.111 16)"/><rect class="a" width="1.778" height="1.778" transform="translate(10.667 16)"/><rect class="a" width="1.778" height="1.778" transform="translate(14.222 16)"/><rect class="a" width="1.778" height="1.778" transform="translate(7.111 20.444)"/><rect class="a" width="1.778" height="1.778" transform="translate(10.667 20.444)"/><rect class="a" width="1.778" height="1.778" transform="translate(14.222 20.444)"/><rect class="a" width="1.778" height="1.778" transform="translate(20.444 11.556)"/><rect class="a" width="1.778" height="1.778" transform="translate(24 11.556)"/><rect class="a" width="1.778" height="1.778" transform="translate(20.444 16)"/><rect class="a" width="1.778" height="1.778" transform="translate(24 16)"/><rect class="a" width="1.778" height="1.778" transform="translate(20.444 20.444)"/><rect class="a" width="1.778" height="1.778" transform="translate(24 20.444)"/><rect class="b" width="32" height="32"/></svg>