<svg xmlns="http://www.w3.org/2000/svg" width="32" height="32" viewBox="0 0 32 32"><defs><style>.a{fill:#f5f8f9;}.b{fill:rgba(0,0,0,0);}</style></defs><path class="a" d="M28.667,5H3.778A1.778,1.778,0,0,0,2,6.778V26.333a1.778,1.778,0,0,0,1.778,1.778H28.667a1.778,1.778,0,0,0,1.778-1.778V6.778A1.778,1.778,0,0,0,28.667,5ZM3.778,26.333V6.778H28.667V26.333Z" transform="translate(-0.222 -0.556)"/><path class="a" d="M7,12h8.889V24.444H7ZM8.422,23.022h6.044V18.044H8.422Zm6.044-9.6H8.422v3.2h6.044Z" transform="translate(-0.778 -1.333)"/><path class="a" d="M19,22.444h8.889V10H19Zm1.422-11.022h6.044V16.4H20.422Zm6.044,9.6H20.422v-3.2h6.044Z" transform="translate(-2.111 -1.111)"/><rect class="b" width="32" height="32"/></svg>