<svg xmlns="http://www.w3.org/2000/svg" width="26" height="26" viewBox="0 0 26 26"><defs><style>.a{fill:#0f92af;}.b{fill:rgba(0,0,0,0);}</style></defs><path class="a" d="M23.667,6H3.444A1.444,1.444,0,0,0,2,7.444V21.889a1.444,1.444,0,0,0,1.444,1.444H23.667a1.444,1.444,0,0,0,1.444-1.444V7.444A1.444,1.444,0,0,0,23.667,6ZM22.554,21.889H4.643L9.7,16.66l-1.04-1L3.444,21.051V8.542l8.977,8.934a1.444,1.444,0,0,0,2.037,0l9.208-9.158V20.957l-5.316-5.316L17.333,16.66ZM4.391,7.444H22.5L13.44,16.451Z" transform="translate(-0.556 -1.667)"/><rect class="b" width="26" height="26"/></svg>