<svg xmlns="http://www.w3.org/2000/svg" width="32" height="32" viewBox="0 0 32 32"><defs><style>.a{fill:none;}.b{fill:#f5f8f9;}</style></defs><g transform="translate(-20 -352)"><rect class="a" width="32" height="32" transform="translate(20 352)"/><g transform="translate(17.43 350.16)"><g transform="translate(3.57 2.69)"><path class="b" d="M16.205,16.241a6.775,6.775,0,1,1,6.775-6.775,6.775,6.775,0,0,1-6.775,6.775Zm0-11.537a4.839,4.839,0,1,0,4.839,4.839A4.839,4.839,0,0,0,16.205,4.7Z" transform="translate(-3.758 -2.69)"/><path class="b" d="M21.408,17.88A24.594,24.594,0,0,0,5.806,19.5,3.93,3.93,0,0,0,3.57,23.058v5.759a.968.968,0,1,0,1.936,0V23.058a1.936,1.936,0,0,1,1.123-1.8,22.175,22.175,0,0,1,9.389-2.042,22.823,22.823,0,0,1,5.391.639Z" transform="translate(-3.57 -3.158)"/><rect class="b" width="5.943" height="1.355" transform="translate(17.974 23.926)"/><path class="b" d="M32.619,21.391h-5v1.936h4.036v8.1H17.936v-8.1h6.1v.407a.968.968,0,1,0,1.936,0V19.968a.968.968,0,1,0-1.936,0v1.423H16.968a.968.968,0,0,0-.968.968V32.4a.968.968,0,0,0,.968.968H32.619a.968.968,0,0,0,.968-.968V22.359A.968.968,0,0,0,32.619,21.391Z" transform="translate(-3.969 -3.214)"/></g></g></g></svg>