<svg xmlns="http://www.w3.org/2000/svg" width="27" height="27" viewBox="0 0 27 27"><defs><style>.a{fill:#0f92af;}.b{fill:rgba(0,0,0,0);}</style></defs><path class="a" d="M25.645,15.03A13.553,13.553,0,0,0,13.78,7.53a13.505,13.505,0,0,0-11.85,7.5l-.21.352.195.36a13.553,13.553,0,0,0,11.865,7.5,13.474,13.474,0,0,0,11.865-7.5l.195-.36ZM13.78,21.7A11.93,11.93,0,0,1,3.43,15.382,11.93,11.93,0,0,1,13.78,9.06a11.979,11.979,0,0,1,10.343,6.323A11.973,11.973,0,0,1,13.78,21.7Z" transform="translate(-0.43 -1.883)"/><path class="a" d="M16.388,11.17a5.145,5.145,0,1,0,3.654,1.486,5.145,5.145,0,0,0-3.654-1.486Zm0,8.79A3.652,3.652,0,1,1,18.995,18.9a3.645,3.645,0,0,1-2.607,1.064Z" transform="translate(-2.82 -2.792)"/><rect class="b" width="27" height="27"/></svg>