<svg xmlns="http://www.w3.org/2000/svg" width="27" height="27" viewBox="0 0 27 27"><defs><style>.a{fill:#0f92af;}.b{fill:rgba(0,0,0,0);}</style></defs><path class="a" d="M4.247,5.407,7.592,8.752A14.64,14.64,0,0,0,2.575,14.22l-.195.353.195.36a13.553,13.553,0,0,0,11.865,7.5,12.7,12.7,0,0,0,5.525-1.266l3.752,3.749L25.03,23.79,5.53,4.29ZM11.56,12.72l4.987,4.988a3.608,3.608,0,0,1-1.875.54,3.652,3.652,0,0,1-3.653-3.675,3.607,3.607,0,0,1,.54-1.852Zm-1.087-1.087a5.137,5.137,0,0,0,7.162,7.162l1.2,1.2a11.183,11.183,0,0,1-4.4.9A11.975,11.975,0,0,1,4.09,14.572,12.967,12.967,0,0,1,8.68,9.847Z" transform="translate(-0.595 -1.073)"/><path class="a" d="M22.99,18.085a5.085,5.085,0,0,0,.323-1.8,5.145,5.145,0,0,0-5.145-5.145,5.092,5.092,0,0,0-1.777.323L17.6,12.707a3.585,3.585,0,0,1,.555-.045,3.653,3.653,0,0,1,3.66,3.622,3.592,3.592,0,0,1-.045.555Z" transform="translate(-4.097 -2.785)"/><path class="a" d="M29.025,15.03A13.553,13.553,0,0,0,17.16,7.53a12.615,12.615,0,0,0-3.93.637l1.207,1.215A11.085,11.085,0,0,1,17.16,9.03a11.975,11.975,0,0,1,10.35,6.322,13.312,13.312,0,0,1-3.277,3.825L25.3,20.242a14.947,14.947,0,0,0,3.75-4.5l.195-.36Z" transform="translate(-3.307 -1.882)"/><rect class="b" width="27" height="27"/></svg>