<svg xmlns="http://www.w3.org/2000/svg" width="31.544" height="36" viewBox="0 0 31.544 36"><defs><style>.a{fill:#96aeb4;}</style></defs><g transform="translate(-141 -23)"><g transform="translate(141 23)"><path class="a" d="M40.578,31.356c-2.887-3.336-.833-7.813-2.2-15.092-.93-4.962-5.977-6.681-9.1-7.279V7.993a2.5,2.5,0,1,0-5.007,0v.995c-3.126.594-8.173,2.313-9.1,7.279-1.367,7.279.683,11.756-2.2,15.1s-1.743,3.716-1.743,3.716h31.1S43.461,34.7,40.578,31.356Z" transform="translate(-11 -5.49)"/><path class="a" d="M46.849,82.074H37.24V82.3a4.82,4.82,0,0,0,4.808,4.8h0a4.821,4.821,0,0,0,4.8-4.808V82.07Z" transform="translate(-26.628 -51.101)"/></g></g></svg>