<svg xmlns="http://www.w3.org/2000/svg" width="316.844" height="80" viewBox="0 0 316.844 80"><defs><style>.a{fill:#d4dee1;}.b{fill:#f8f9f9;}</style></defs><g transform="translate(-100 -100)"><path class="a" d="M8.711-18.371H2.964V-3.017H4.587V-7.864H8.711c3.9,0,6.273-1.974,6.273-5.242C14.984-16.4,12.615-18.371,8.711-18.371ZM8.667-9.29H4.587v-7.677h4.08c3.071,0,4.694,1.4,4.694,3.86C13.361-10.694,11.738-9.29,8.667-9.29Zm14.872-5.352a7.326,7.326,0,0,0-4.694,1.557l.7,1.163a5.877,5.877,0,0,1,3.839-1.36c2.15,0,3.268,1.075,3.268,3.049v.7H22.99c-3.312,0-4.453,1.492-4.453,3.268,0,2,1.6,3.356,4.211,3.356a4.332,4.332,0,0,0,3.97-1.908v1.8h1.492v-7.151C28.211-13.15,26.522-14.642,23.539-14.642ZM22.99-4.135c-1.843,0-2.917-.834-2.917-2.172,0-1.184.724-2.062,2.961-2.062h3.619v1.886A3.691,3.691,0,0,1,22.99-4.135ZM41.832-14.554l-4.343,9.8-4.343-9.8H31.523L36.677-3.038l-.5,1.119C35.515-.472,34.813.01,33.782.01a2.881,2.881,0,0,1-2.106-.877L30.953.3A3.948,3.948,0,0,0,33.76,1.348c1.645,0,2.873-.724,3.839-2.983l5.769-12.919ZM48.5-12.295v-2.259H47.009V-3.017h1.557V-8.895c0-2.72,1.47-4.255,3.882-4.255.11,0,.241.022.373.022v-1.513C50.694-14.642,49.224-13.83,48.5-12.295ZM61.683-2.907a5.675,5.675,0,0,0,5.857-5.878,5.657,5.657,0,0,0-5.857-5.857A5.675,5.675,0,0,0,55.8-8.785,5.693,5.693,0,0,0,61.683-2.907Zm0-1.382a4.224,4.224,0,0,1-4.3-4.5,4.224,4.224,0,0,1,4.3-4.5,4.207,4.207,0,0,1,4.277,4.5A4.207,4.207,0,0,1,61.683-4.289ZM72.168-3.017h1.557V-19.292H72.168Zm7.348,0h1.557V-19.292H79.516Zm19.105.132c3.926,0,5.725-1.93,5.725-4.19,0-5.593-9.454-3.049-9.454-7.26,0-1.535,1.25-2.786,4.058-2.786a7.9,7.9,0,0,1,4.211,1.272l.548-1.294a8.667,8.667,0,0,0-4.76-1.36c-3.9,0-5.659,1.952-5.659,4.211,0,5.681,9.454,3.093,9.454,7.3,0,1.513-1.25,2.72-4.124,2.72a7.54,7.54,0,0,1-5.067-1.864l-.636,1.25A8.326,8.326,0,0,0,98.621-2.885Zm20.443-5.9a5.5,5.5,0,0,0-5.593-5.857,5.557,5.557,0,0,0-5.637,5.857,5.714,5.714,0,0,0,6.054,5.878,5.679,5.679,0,0,0,4.453-1.886L117.463-5.8a4.548,4.548,0,0,1-3.531,1.513,4.271,4.271,0,0,1-4.54-4.014h9.651C119.042-8.478,119.064-8.654,119.064-8.785ZM113.471-13.3a4.013,4.013,0,0,1,4.1,3.839h-8.182A4.007,4.007,0,0,1,113.471-13.3Zm11.713,1.009v-2.259h-1.492V-3.017h1.557V-8.895c0-2.72,1.47-4.255,3.882-4.255.11,0,.241.022.373.022v-1.513C127.377-14.642,125.907-13.83,125.184-12.295Zm17.241-2.259-4.365,9.827-4.321-9.827h-1.623l5.111,11.538h1.6l5.133-11.538Zm5.966-2.522a1.119,1.119,0,0,0,1.141-1.141,1.106,1.106,0,0,0-1.141-1.075,1.124,1.124,0,0,0-1.141,1.1A1.128,1.128,0,0,0,148.39-17.077Zm-.79,14.06h1.557V-14.554H147.6Zm12.13.11a5.086,5.086,0,0,0,4.519-2.281l-1.163-.79a3.9,3.9,0,0,1-3.356,1.689,4.227,4.227,0,0,1-4.365-4.5,4.239,4.239,0,0,1,4.365-4.5,3.922,3.922,0,0,1,3.356,1.711l1.163-.79a5.039,5.039,0,0,0-4.519-2.281,5.679,5.679,0,0,0-5.944,5.857A5.7,5.7,0,0,0,159.731-2.907Zm18.886-5.878a5.5,5.5,0,0,0-5.593-5.857,5.557,5.557,0,0,0-5.637,5.857,5.714,5.714,0,0,0,6.054,5.878,5.679,5.679,0,0,0,4.453-1.886L177.015-5.8a4.548,4.548,0,0,1-3.531,1.513,4.271,4.271,0,0,1-4.54-4.014h9.651C178.594-8.478,178.616-8.654,178.616-8.785ZM173.023-13.3a4.013,4.013,0,0,1,4.1,3.839h-8.182A4.007,4.007,0,0,1,173.023-13.3Z" transform="translate(135.429 178.652)"/><path class="b" d="M-174.751,17.982h-10.793V-48.165h21.152a18.68,18.68,0,0,1,5.261.734,13.376,13.376,0,0,1,4.445,2.216A10.942,10.942,0,0,1-151.6-41.49a11.34,11.34,0,0,1,1.155,5.261,11.492,11.492,0,0,1-.544,3.575A11.6,11.6,0,0,1-152.5-29.6a13.188,13.188,0,0,1-2.27,2.5,13.629,13.629,0,0,1-2.855,1.876,15.471,15.471,0,0,1-3.276,1.169,15.146,15.146,0,0,1-3.494.408h-10.358Zm13.376-54.211a8.639,8.639,0,0,0-1.917-5.94q-1.917-2.161-5.777-2.161h-5.682v16.992h5.682a8.417,8.417,0,0,0,3.521-.666,6.224,6.224,0,0,0,2.379-1.862,7.9,7.9,0,0,0,1.359-2.814A13.639,13.639,0,0,0-161.375-36.23Zm42.331-1.414-5.166,8.564q-.326-1.087-.843-2.447a13.619,13.619,0,0,0-1.278-2.542,7.654,7.654,0,0,0-1.822-1.985,3.946,3.946,0,0,0-2.447-.8,3.782,3.782,0,0,0-2.216.653,5.726,5.726,0,0,0-1.59,1.7,10.484,10.484,0,0,0-1.074,2.365,19.689,19.689,0,0,0-.652,2.664,25,25,0,0,0-.313,2.583q-.082,1.237-.082,2.134V-9.015h-9.217v-31.4h3.534l3.725,7.313a20.834,20.834,0,0,1,1.74-3.249,11.821,11.821,0,0,1,2.257-2.556,9.677,9.677,0,0,1,2.9-1.672,10.491,10.491,0,0,1,3.657-.6,17.772,17.772,0,0,1,2.365.177,13.774,13.774,0,0,1,2.556.6,10.438,10.438,0,0,1,2.311,1.1A5.174,5.174,0,0,1-119.044-37.643Zm36.187,12.86a15.729,15.729,0,0,1-.653,4.595,16.115,16.115,0,0,1-1.808,3.969A15.485,15.485,0,0,1-88.1-12.943a17.292,17.292,0,0,1-3.575,2.46,18.723,18.723,0,0,1-4.16,1.55,19.038,19.038,0,0,1-4.554.544,18.871,18.871,0,0,1-4.54-.544,18.781,18.781,0,0,1-4.146-1.55,17.292,17.292,0,0,1-3.575-2.46,15.485,15.485,0,0,1-2.787-3.276,16.057,16.057,0,0,1-1.808-3.983,15.769,15.769,0,0,1-.653-4.581,15.769,15.769,0,0,1,.653-4.581,16.057,16.057,0,0,1,1.808-3.983,15.485,15.485,0,0,1,2.787-3.276,17.292,17.292,0,0,1,3.575-2.46,18.781,18.781,0,0,1,4.146-1.55,18.871,18.871,0,0,1,4.54-.544,19.038,19.038,0,0,1,4.554.544,18.723,18.723,0,0,1,4.16,1.55,17.293,17.293,0,0,1,3.575,2.46,15.485,15.485,0,0,1,2.787,3.276,16.058,16.058,0,0,1,1.808,3.983A15.769,15.769,0,0,1-82.857-24.784Zm-9.353,0a27.035,27.035,0,0,0-.15-2.76,20.007,20.007,0,0,0-.5-2.855,14.644,14.644,0,0,0-.965-2.692,8.849,8.849,0,0,0-1.509-2.257,6.868,6.868,0,0,0-2.148-1.55,6.8,6.8,0,0,0-2.909-.585,6.3,6.3,0,0,0-2.8.6,7.106,7.106,0,0,0-2.134,1.59,9.05,9.05,0,0,0-1.523,2.3,16.655,16.655,0,0,0-.992,2.705,18.98,18.98,0,0,0-.544,2.828,23.655,23.655,0,0,0-.163,2.678,23.655,23.655,0,0,0,.163,2.678,19.38,19.38,0,0,0,.544,2.841,16.055,16.055,0,0,0,.992,2.705,9.132,9.132,0,0,0,1.523,2.284,7.106,7.106,0,0,0,2.134,1.59,6.3,6.3,0,0,0,2.8.6,6.735,6.735,0,0,0,2.882-.585,6.925,6.925,0,0,0,2.161-1.563,8.7,8.7,0,0,0,1.509-2.257,15.551,15.551,0,0,0,.965-2.692,19.253,19.253,0,0,0,.517-2.855A26.642,26.642,0,0,0-92.209-24.784ZM-67.877-9.015h-9.189V-54.88h3.534l5.655,9.543ZM-50.558-48a4.938,4.938,0,0,1-.394,1.958,5.036,5.036,0,0,1-1.074,1.6,5.036,5.036,0,0,1-1.6,1.074,4.938,4.938,0,0,1-1.958.394,4.841,4.841,0,0,1-1.944-.394,5.078,5.078,0,0,1-1.59-1.074,5.037,5.037,0,0,1-1.074-1.6A4.938,4.938,0,0,1-60.59-48a4.841,4.841,0,0,1,.394-1.944,5.078,5.078,0,0,1,1.074-1.59,5.078,5.078,0,0,1,1.59-1.074A4.841,4.841,0,0,1-55.588-53a4.938,4.938,0,0,1,1.958.394,5.037,5.037,0,0,1,1.6,1.074,5.078,5.078,0,0,1,1.074,1.59A4.841,4.841,0,0,1-50.558-48Zm-.408,38.987h-9.217V-40.389h9.217Zm36.024-45.131a5.273,5.273,0,0,0-1.917,1.115,5.779,5.779,0,0,0-1.183,1.55,6.873,6.873,0,0,0-.625,1.754A12.54,12.54,0,0,0-18.912-48a11.486,11.486,0,0,0-.014,1.468q.041.653.068.979a13.768,13.768,0,0,0-.218-1.55,10.636,10.636,0,0,0-.489-1.713A10.3,10.3,0,0,0-20.38-50.5a5.95,5.95,0,0,0-1.21-1.441,5.782,5.782,0,0,0-1.686-1.006,6.008,6.008,0,0,0-2.216-.381,4.958,4.958,0,0,0-3.1.9,5.618,5.618,0,0,0-1.794,2.569,15.741,15.741,0,0,0-.843,4.051q-.218,2.379-.218,5.37h9.516V-36.8h-9.516V-9.015h-9.217V-36.8h-5.709v-3.643h5.709q0-8.646,3.725-12.928t11.364-4.282a17.374,17.374,0,0,1,4.037.421,17.123,17.123,0,0,1,3.045,1.006,15,15,0,0,1,2.161,1.169Q-15.459-54.472-14.942-54.146ZM-6.623-48a4.938,4.938,0,0,1-.394,1.958,5.036,5.036,0,0,1-1.074,1.6,5.036,5.036,0,0,1-1.6,1.074,4.938,4.938,0,0,1-1.958.394,4.841,4.841,0,0,1-1.944-.394,5.078,5.078,0,0,1-1.59-1.074,5.036,5.036,0,0,1-1.074-1.6A4.938,4.938,0,0,1-16.655-48a4.841,4.841,0,0,1,.394-1.944,5.078,5.078,0,0,1,1.074-1.59A5.078,5.078,0,0,1-13.6-52.61,4.841,4.841,0,0,1-11.653-53,4.938,4.938,0,0,1-9.7-52.61a5.037,5.037,0,0,1,1.6,1.074,5.078,5.078,0,0,1,1.074,1.59A4.841,4.841,0,0,1-6.623-48ZM-7.031-9.015h-9.217V-40.389h9.217ZM29.645-32.641l-3.969,1.577a8.706,8.706,0,0,0-3.181-4.595,8.926,8.926,0,0,0-5.356-1.6,8,8,0,0,0-3,.53,7.409,7.409,0,0,0-2.311,1.455,8.928,8.928,0,0,0-1.686,2.148A13.431,13.431,0,0,0,9.01-30.52a16.647,16.647,0,0,0-.625,2.868,22.519,22.519,0,0,0-.19,2.868,28.311,28.311,0,0,0,.163,3.018,17.739,17.739,0,0,0,.557,2.923,12.768,12.768,0,0,0,1.047,2.61,7.819,7.819,0,0,0,1.645,2.107,7.335,7.335,0,0,0,2.365,1.414,8.963,8.963,0,0,0,3.167.517,8.626,8.626,0,0,0,2.746-.435,8.778,8.778,0,0,0,2.393-1.223,9.457,9.457,0,0,0,1.93-1.876,8.974,8.974,0,0,0,1.332-2.42l4,1.468a12.127,12.127,0,0,1-2.379,3.711A13.449,13.449,0,0,1,23.8-10.388a15.674,15.674,0,0,1-4.024,1.509,19.52,19.52,0,0,1-4.35.489A17.731,17.731,0,0,1,8.82-9.6,15.574,15.574,0,0,1,3.559-13,15.678,15.678,0,0,1,.092-18.191a16.989,16.989,0,0,1-1.251-6.593A17.328,17.328,0,0,1,.079-31.417,15.428,15.428,0,0,1,3.518-36.61a15.363,15.363,0,0,1,5.247-3.371,18.062,18.062,0,0,1,6.661-1.2,19.725,19.725,0,0,1,4.459.5,15.165,15.165,0,0,1,4.037,1.55,13.608,13.608,0,0,1,3.344,2.651A12.411,12.411,0,0,1,29.645-32.641Zm32.6,23.626H51.45v-39.15H62.243v17.1h14.3v-17.1H87.337v39.15H76.544V-26.089h-14.3Zm44.751,0H96.2v-39.15h19.249a21.337,21.337,0,0,1,5.247.639,13.332,13.332,0,0,1,4.472,2.012,10.035,10.035,0,0,1,3.1,3.548,11.116,11.116,0,0,1,1.155,5.274,10.431,10.431,0,0,1-1.02,4.554,13.415,13.415,0,0,1-2.719,3.806,15.231,15.231,0,0,1-3.9,2.773,15.174,15.174,0,0,1-4.568,1.455q1.06,1.794,2.216,3.4t2.338,3q1.183,1.4,2.352,2.583t2.229,2.161A43.969,43.969,0,0,0,131.3-9.015H117.842a22.379,22.379,0,0,1-3.1-3.725,32.907,32.907,0,0,1-2.515-4.581,27.02,27.02,0,0,1-1.944-6.321h-3.29Zm11.473-27.677q0-3.942-1.917-5.791t-5.75-1.849h-3.806v16.992H110.8a7.339,7.339,0,0,0,3.494-.775,6.822,6.822,0,0,0,2.379-2.066,8.866,8.866,0,0,0,1.359-2.977A14.092,14.092,0,0,0,118.467-36.692Z" transform="translate(285.544 157.653)"/></g></svg>