<svg xmlns="http://www.w3.org/2000/svg" width="32" height="32" viewBox="0 0 32 32"><defs><style>.a{fill:#f5f8f9;}.b{fill:rgba(0,0,0,0);}</style></defs><path class="a" d="M28.667,6H3.778A1.778,1.778,0,0,0,2,7.778V25.556a1.778,1.778,0,0,0,1.778,1.778H28.667a1.778,1.778,0,0,0,1.778-1.778V7.778A1.778,1.778,0,0,0,28.667,6Zm0,19.556H3.778V7.778H28.667Z" transform="translate(-0.222 -0.667)"/><path class="a" d="M8.889,13.778h16a.889.889,0,1,0,0-1.778h-16a.889.889,0,1,0,0,1.778Z" transform="translate(-0.889 -1.333)"/><path class="a" d="M8.889,17.778h16a.889.889,0,1,0,0-1.778h-16a.889.889,0,1,0,0,1.778Z" transform="translate(-0.889 -1.778)"/><path class="a" d="M8.889,21.778h8.889a.889.889,0,1,0,0-1.778H8.889a.889.889,0,1,0,0,1.778Z" transform="translate(-0.889 -2.222)"/><rect class="b" width="32" height="32"/></svg>