<svg xmlns="http://www.w3.org/2000/svg" width="32" height="32" viewBox="0 0 32 32"><defs><style>.a{fill:#f5f8f9;}.b{fill:rgba(0,0,0,0);}</style></defs><path class="a" d="M17.322,11a6.222,6.222,0,1,0,6.222,6.222A6.184,6.184,0,0,0,17.322,11Zm0,10.667a4.444,4.444,0,1,1,4.444-4.444A4.4,4.4,0,0,1,17.322,21.667Z" transform="translate(-1.233 -1.222)"/><path class="a" d="M29.378,13.289l-2.489-.8-.533-1.333L27.6,8.844a1.5,1.5,0,0,0-.267-1.689L25.2,5.022a1.5,1.5,0,0,0-1.689-.267L21.2,6l-1.333-.533-.8-2.489A1.445,1.445,0,0,0,17.733,2H14.711a1.246,1.246,0,0,0-1.244,1.067l-.8,2.489a3.927,3.927,0,0,0-1.422.533L8.933,4.844a1.5,1.5,0,0,0-1.689.267L5.111,7.244a1.5,1.5,0,0,0-.267,1.689L6,11.156c-.178.444-.356.978-.533,1.422l-2.489.8A1.445,1.445,0,0,0,2,14.711v3.022a1.416,1.416,0,0,0,1.067,1.333l2.489.8L6.089,21.2,4.844,23.511A1.5,1.5,0,0,0,5.111,25.2l2.133,2.133a1.5,1.5,0,0,0,1.689.267l2.311-1.244,1.333.533.8,2.578a1.445,1.445,0,0,0,1.333.978h3.022a1.445,1.445,0,0,0,1.333-.978l.8-2.578,1.333-.533L23.511,27.6a1.5,1.5,0,0,0,1.689-.267L27.333,25.2a1.5,1.5,0,0,0,.267-1.689L26.356,21.2l.533-1.333,2.578-.8a1.445,1.445,0,0,0,.978-1.333V14.711A1.521,1.521,0,0,0,29.378,13.289Zm-.711,4.178-3.2.978-.089.444-.8,1.867-.267.444,1.6,2.933-1.778,1.778-2.933-1.6-.444.267a8.439,8.439,0,0,1-1.867.8l-.444.089-.978,3.2H14.978L14,25.467l-.444-.089-1.867-.8-.444-.267-2.933,1.6L6.533,24.133l1.6-2.933-.267-.444a8.439,8.439,0,0,1-.8-1.867l-.089-.444-3.2-.978V14.978L6.8,14.089l.178-.444a7.545,7.545,0,0,1,.8-1.956l.267-.444L6.533,8.311,8.311,6.533l2.844,1.6.444-.267a7.545,7.545,0,0,1,1.956-.8L14,6.889l.978-3.111h2.489l.978,3.111.444.178a8.439,8.439,0,0,1,1.867.8l.444.267,2.933-1.6,1.778,1.778-1.6,2.933.267.444a8.439,8.439,0,0,1,.8,1.867l.089.444,3.2.978Z" transform="translate(-0.222 -0.222)"/><rect class="b" width="32" height="32"/></svg>